<svg width="697.7375px" height="128px" xmlns="http://www.w3.org/2000/svg" viewBox="-98.86874999999998 11 697.7375 128" style="background:#fff" preserveAspectRatio="xMidYMid"><defs><filter id="editing-marble" x="-100%" y="-100%" width="300%" height="300%"><feFlood flood-color="#b407af" result="flood-1"></feFlood><feComposite operator="in" in="flood-1" in2="SourceAlpha" result="flood-2"></feComposite><feTurbulence baseFrequency="0.76" type="fractalNoise" numOctaves="1" seed="2" result="bs-1"></feTurbulence><feGaussianBlur stdDeviation="4.5" in="flood-2" result="bs-2"></feGaussianBlur><feDisplacementMap scale="448" in="bs-2" in2="bs-1" result="bs-3"></feDisplacementMap><feComposite operator="in" in="bs-3" in2="SourceAlpha" result="texture"></feComposite><feMerge><feMergeNode in="SourceGraphic"></feMergeNode><feMergeNode in="texture"></feMergeNode></feMerge></filter></defs><g filter="url(#editing-marble)"><g transform="translate(1.2549897134304047, 106.31499862670898)"><path d="M15.23 0L0.41 0L9.04-44.88L24.00-44.88L15.23 0ZM74.46 1.36L74.46 1.36L74.46 1.36Q66.23 1.36 66.23-5.03L66.23-5.03L66.23-5.03Q66.23-7.82 67.42-13.23L67.42-13.23L67.42-13.23Q68.61-18.63 69.02-20.81L69.02-20.81L69.02-20.81Q69.97-25.77 69.97-27.34L69.97-27.34L69.97-27.34Q69.97-30.80 67.39-30.80L67.39-30.80L67.39-30.80Q65.69-30.80 64.06-28.46L64.06-28.46L64.06-28.46Q62.42-26.11 61.68-21.42L61.68-21.42L57.46 0L44.20 1.36L47.87-17.14L47.87-17.14Q48.48-20.20 49.03-23.66L49.03-23.66L49.03-23.66Q49.57-27.13 49.57-27.68L49.57-27.68L49.57-27.68Q49.57-30.80 47.26-30.80L47.26-30.80L47.26-30.80Q45.70-30.80 44.00-28.49L44.00-28.49L44.00-28.49Q42.30-26.18 41.34-21.42L41.34-21.42L37.20 0L23.80 1.36L30.94-34.68L42.02-36.04L40.87-29.17L40.87-29.17Q42.64-32.84 45.90-34.44L45.90-34.44L45.90-34.44Q49.16-36.04 54.26-36.04L54.26-36.04L54.26-36.04Q57.19-36.04 59.09-34.61L59.09-34.61L59.09-34.61Q61.00-33.18 61.61-30.87L61.61-30.87L61.61-30.87Q62.76-33.25 65.72-34.65L65.72-34.65L65.72-34.65Q68.68-36.04 72.32-36.04L72.32-36.04L72.32-36.04Q75.96-36.04 77.76-35.26L77.76-35.26L77.76-35.26Q79.56-34.48 80.65-33.18L80.65-33.18L80.65-33.18Q82.48-30.80 82.48-26.45L82.48-26.45L82.48-26.45Q82.48-22.17 80.65-13.26L80.65-13.26L80.65-13.26Q79.70-8.91 79.70-7.31L79.70-7.31L79.70-7.31Q79.70-5.71 80.61-4.76L80.61-4.76L80.61-4.76Q81.53-3.81 82.89-3.67L82.89-3.67L82.89-3.67Q82.21-1.36 79.87 0L79.87 0L79.87 0Q77.52 1.36 74.46 1.36ZM91.09-2.04L91.09-2.04L91.09-2.04Q89.49-3.81 88.77-6.60L88.77-6.60L88.77-6.60Q88.06-9.38 88.06-13.94L88.06-13.94L88.06-13.94Q88.06-18.50 89.62-22.64L89.62-22.64L89.62-22.64Q91.19-26.79 94.04-29.78L94.04-29.78L94.04-29.78Q99.89-36.04 109.55-36.04L109.55-36.04L109.55-36.04Q113.02-36.04 115.53-34.88L115.53-34.88L127.16-36.04L122.13-9.52L122.13-9.52Q121.92-8.70 121.92-7.21L121.92-7.21L121.92-7.21Q121.92-5.71 122.84-4.76L122.84-4.76L122.84-4.76Q123.76-3.81 125.12-3.67L125.12-3.67L125.12-3.67Q124.44-1.36 121.96 0L121.96 0L121.96 0Q119.48 1.36 116.69 1.36L116.69 1.36L116.69 1.36Q113.90 1.36 112.03 0.31L112.03 0.31L112.03 0.31Q110.16-0.75 109.62-2.52L109.62-2.52L109.62-2.52Q108.53-0.82 106.22 0.27L106.22 0.27L106.22 0.27Q103.90 1.36 100.81 1.36L100.81 1.36L100.81 1.36Q97.72 1.36 95.20 0.54L95.20 0.54L95.20 0.54Q92.68-0.27 91.09-2.04ZM105.43-29.65L105.43-29.65L105.43-29.65Q104.65-28.42 103.97-26.35L103.97-26.35L103.97-26.35Q103.29-24.28 102.17-18.73L102.17-18.73L102.17-18.73Q101.05-13.19 101.05-9.25L101.05-9.25L101.05-9.25Q101.05-5.30 101.66-4.15L101.66-4.15L101.66-4.15Q102.27-2.99 103.36-2.99L103.36-2.99L103.36-2.99Q105.54-2.99 107.13-5.07L107.13-5.07L107.13-5.07Q108.73-7.14 109.34-10.81L109.34-10.81L112.95-30.74L112.95-30.74Q111.52-31.96 109.85-31.96L109.85-31.96L109.85-31.96Q108.19-31.96 107.20-31.42L107.20-31.42L107.20-31.42Q106.22-30.87 105.43-29.65ZM135.39-28.42L135.39-28.42L135.39-28.42Q137.70-31.69 141.20-33.86L141.20-33.86L141.20-33.86Q144.70-36.04 148.99-36.04L148.99-36.04L148.99-36.04Q153.27-36.04 155.31-34.68L155.31-34.68L168.64-36.04L164.02-9.93L164.02-9.93Q161.64 3.40 156.60 8.64L156.60 8.64L156.60 8.64Q151.78 13.60 142.39 13.60L142.39 13.60L142.39 13.60Q135.25 13.60 131.17 11.36L131.17 11.36L131.17 11.36Q127.09 9.11 127.09 5.37L127.09 5.37L127.09 5.37Q127.09 2.58 129.20 0.99L129.20 0.99L129.20 0.99Q131.31-0.61 134.57-0.61L134.57-0.61L134.57-0.61Q137.43-0.61 139.60 0.68L139.60 0.68L139.60 0.68Q140.90 1.36 141.51 2.31L141.51 2.31L141.51 2.31Q139.94 3.67 139.94 5.92L139.94 5.92L139.94 5.92Q139.94 8.84 142.66 8.84L142.66 8.84L142.66 8.84Q147.22 8.84 149.80-1.90L149.80-1.90L149.80-1.90Q150.55-4.83 151.16-7.75L151.16-7.75L151.16-7.75Q148.10-4.01 141.17-4.01L141.17-4.01L141.17-4.01Q136.34-4.01 133.55-6.32L133.55-6.32L133.55-6.32Q130.76-8.64 130.76-14.08L130.76-14.08L130.76-14.08Q130.76-17.48 131.92-21.32L131.92-21.32L131.92-21.32Q133.08-25.16 135.39-28.42ZM144.23-13.87L144.23-13.87L144.23-13.87Q144.23-9.25 146.61-9.25L146.61-9.25L146.61-9.25Q148.24-9.25 149.80-11.02L149.80-11.02L149.80-11.02Q151.03-12.44 151.50-14.55L151.50-14.55L154.97-32.03L154.97-32.03Q154.63-32.10 154.29-32.23L154.29-32.23L154.29-32.23Q153.61-32.50 152.73-32.50L152.73-32.50L152.73-32.50Q148.58-32.50 146.13-25.70L146.13-25.70L146.13-25.70Q144.23-20.40 144.23-13.87ZM198.83-11.49L198.83-11.49L198.83-11.49Q200.53-10.34 200.53-7.79L200.53-7.79L200.53-7.79Q200.53-5.24 199.24-3.60L199.24-3.60L199.24-3.60Q197.95-1.97 195.84-0.88L195.84-0.88L195.84-0.88Q191.49 1.36 186.80 1.36L186.80 1.36L186.80 1.36Q182.10 1.36 179.35 0.34L179.35 0.34L179.35 0.34Q176.60-0.68 174.76-2.58L174.76-2.58L174.76-2.58Q171.16-6.19 171.16-12.78L171.16-12.78L171.16-12.78Q171.16-23.05 176.73-29.31L176.73-29.31L176.73-29.31Q182.72-36.04 193.12-36.04L193.12-36.04L193.12-36.04Q199.58-36.04 202.78-33.32L202.78-33.32L202.78-33.32Q205.16-31.28 205.16-27.95L205.16-27.95L205.16-27.95Q205.16-15.98 184.48-15.98L184.48-15.98L184.48-15.98Q184.21-14.21 184.21-12.72L184.21-12.72L184.21-12.72Q184.21-9.59 185.61-8.40L185.61-8.40L185.61-8.40Q187.00-7.21 189.58-7.21L189.58-7.21L189.58-7.21Q192.17-7.21 194.92-8.40L194.92-8.40L194.92-8.40Q197.68-9.59 198.83-11.49ZM184.96-18.90L184.96-18.90L184.96-18.90Q189.79-18.90 192.58-21.90L192.58-21.90L192.58-21.90Q195.36-24.75 195.36-29.31L195.36-29.31L195.36-29.31Q195.36-30.87 194.79-31.72L194.79-31.72L194.79-31.72Q194.21-32.57 193.05-32.57L193.05-32.57L193.05-32.57Q191.90-32.57 190.91-32.13L190.91-32.13L190.91-32.13Q189.92-31.69 188.90-30.19L188.90-30.19L188.90-30.19Q186.39-26.79 184.96-18.90ZM227.80-23.87L227.80-23.87L227.80-23.87Q228.75-26.38 228.75-28.56L228.75-28.56L228.75-28.56Q228.75-32.57 225.49-32.57L225.49-32.57L225.49-32.57Q223.79-32.57 222.39-31.04L222.39-31.04L222.39-31.04Q221-29.51 221-27.61L221-27.61L221-27.61Q221-26.25 222.09-25.16L222.09-25.16L222.09-25.16Q223.65-23.66 227.66-21.22L227.66-21.22L227.66-21.22Q231.68-18.77 233.21-16.76L233.21-16.76L233.21-16.76Q234.74-14.76 234.74-12.00L234.74-12.00L234.74-12.00Q234.74-9.25 233.41-6.73L233.41-6.73L233.41-6.73Q232.08-4.22 229.70-2.45L229.70-2.45L229.70-2.45Q224.60 1.36 216.44 1.36L216.44 1.36L216.44 1.36Q212.02 1.36 208.62-0.95L208.62-0.95L208.62-0.95Q205.22-3.20 205.22-5.85L205.22-5.85L205.22-5.85Q205.22-8.50 207.16-10.06L207.16-10.06L207.16-10.06Q209.10-11.63 211.96-11.63L211.96-11.63L211.96-11.63Q214.81-11.63 216.58-10.54L216.58-10.54L216.58-10.54Q215.70-8.30 215.70-6.80L215.70-6.80L215.70-6.80Q215.70-2.31 219.50-2.31L219.50-2.31L219.50-2.31Q221.14-2.31 222.22-3.33L222.22-3.33L222.22-3.33Q223.31-4.35 223.31-6.12L223.31-6.12L223.31-6.12Q223.31-9.59 217.46-13.26L217.46-13.26L217.46-13.26Q212.70-16.39 211.62-17.61L211.62-17.61L211.62-17.61Q209.78-19.79 209.78-22.51L209.78-22.51L209.78-22.51Q209.78-25.23 211.07-27.81L211.07-27.81L211.07-27.81Q212.36-30.40 214.74-32.23L214.74-32.23L214.74-32.23Q219.71-36.04 228.34-36.04L228.34-36.04L228.34-36.04Q232.76-36.04 235.38-34.27L235.38-34.27L235.38-34.27Q238-32.50 238-29.51L238-29.51L238-29.51Q238-26.52 236.20-24.82L236.20-24.82L236.20-24.82Q234.40-23.12 231.13-23.12L231.13-23.12L231.13-23.12Q228.89-23.12 227.80-23.87ZM282.06-21.90L295.80-23.12L295.80-23.12Q290.90-12.38 290.90 0.07L290.90 0.07L290.90 0.07Q289.07 1.36 286.38 1.36L286.38 1.36L286.38 1.36Q283.70 1.36 282.00 0.10L282.00 0.10L282.00 0.10Q280.30-1.16 279.96-2.45L279.96-2.45L279.96-2.45Q278.26-0.68 275.50 0.34L275.50 0.34L275.50 0.34Q272.75 1.36 269.82 1.36L269.82 1.36L269.82 1.36Q266.90 1.36 264.35 0.41L264.35 0.41L264.35 0.41Q261.80-0.54 259.83-2.65L259.83-2.65L259.83-2.65Q255.48-7.28 255.48-16.05L255.48-16.05L255.48-16.05Q255.48-29.65 262.75-37.81L262.75-37.81L262.75-37.81Q270.23-46.24 283.49-46.24L283.49-46.24L283.49-46.24Q292.67-46.24 295.94-41.48L295.94-41.48L295.94-41.48Q296.96-39.98 296.96-38.18L296.96-38.18L296.96-38.18Q296.96-36.38 296.17-34.85L296.17-34.85L296.17-34.85Q295.39-33.32 294.17-32.10L294.17-32.10L294.17-32.10Q291.24-29.38 287.64-29.38L287.64-29.38L287.64-29.38Q286.21-29.38 284.85-29.85L284.85-29.85L284.85-29.85Q285.12-31.89 285.12-34.27L285.12-34.27L285.12-34.27Q285.12-36.65 284.95-37.74L284.95-37.74L284.95-37.74Q284.78-38.83 284.38-39.71L284.38-39.71L284.38-39.71Q283.49-41.55 281.55-41.55L281.55-41.55L281.55-41.55Q279.62-41.55 277.47-39.47L277.47-39.47L277.47-39.47Q275.33-37.40 273.63-34L273.63-34L273.63-34Q269.89-26.38 269.89-17.20L269.89-17.20L269.89-17.20Q269.89-12.99 271.52-10.00L271.52-10.00L271.52-10.00Q273.29-6.73 276.42-6.73L276.42-6.73L276.42-6.73Q277.51-6.73 278.49-7.28L278.49-7.28L278.49-7.28Q279.48-7.82 279.89-8.23L279.89-8.23L282.06-21.90ZM302.09-2.04L302.09-2.04L302.09-2.04Q300.49-3.81 299.78-6.60L299.78-6.60L299.78-6.60Q299.06-9.38 299.06-13.94L299.06-13.94L299.06-13.94Q299.06-18.50 300.63-22.64L300.63-22.64L300.63-22.64Q302.19-26.79 305.05-29.78L305.05-29.78L305.05-29.78Q310.90-36.04 320.55-36.04L320.55-36.04L320.55-36.04Q324.02-36.04 326.54-34.88L326.54-34.88L338.16-36.04L333.13-9.52L333.13-9.52Q332.93-8.70 332.93-7.21L332.93-7.21L332.93-7.21Q332.93-5.71 333.85-4.76L333.85-4.76L333.85-4.76Q334.76-3.81 336.12-3.67L336.12-3.67L336.12-3.67Q335.44-1.36 332.96 0L332.96 0L332.96 0Q330.48 1.36 327.69 1.36L327.69 1.36L327.69 1.36Q324.90 1.36 323.03 0.31L323.03 0.31L323.03 0.31Q321.16-0.75 320.62-2.52L320.62-2.52L320.62-2.52Q319.53-0.82 317.22 0.27L317.22 0.27L317.22 0.27Q314.91 1.36 311.81 1.36L311.81 1.36L311.81 1.36Q308.72 1.36 306.20 0.54L306.20 0.54L306.20 0.54Q303.69-0.27 302.09-2.04ZM316.44-29.65L316.44-29.65L316.44-29.65Q315.66-28.42 314.98-26.35L314.98-26.35L314.98-26.35Q314.30-24.28 313.17-18.73L313.17-18.73L313.17-18.73Q312.05-13.19 312.05-9.25L312.05-9.25L312.05-9.25Q312.05-5.30 312.66-4.15L312.66-4.15L312.66-4.15Q313.28-2.99 314.36-2.99L314.36-2.99L314.36-2.99Q316.54-2.99 318.14-5.07L318.14-5.07L318.14-5.07Q319.74-7.14 320.35-10.81L320.35-10.81L323.95-30.74L323.95-30.74Q322.52-31.96 320.86-31.96L320.86-31.96L320.86-31.96Q319.19-31.96 318.21-31.42L318.21-31.42L318.21-31.42Q317.22-30.87 316.44-29.65ZM358.09-3.74L358.09-3.74L358.09-3.74Q355.98 1.36 349.25 1.36L349.25 1.36L349.25 1.36Q345.85 1.36 343.67-1.02L343.67-1.02L343.67-1.02Q341.90-2.99 341.90-5.24L341.90-5.24L341.90-5.24Q341.90-10.34 344.28-21.49L344.28-21.49L349.25-47.60L363.05-48.96L356.46-14.55L356.46-14.55Q355.30-9.52 355.30-7.75L355.30-7.75L355.30-7.75Q355.30-3.88 358.09-3.74ZM380.12-3.74L380.12-3.74L380.12-3.74Q378.01 1.36 371.28 1.36L371.28 1.36L371.28 1.36Q367.88 1.36 365.70-1.02L365.70-1.02L365.70-1.02Q363.94-2.99 363.94-5.24L363.94-5.24L363.94-5.24Q363.94-10.34 366.32-21.49L366.32-21.49L371.28-47.60L385.08-48.96L378.49-14.55L378.49-14.55Q377.33-9.52 377.33-7.75L377.33-7.75L377.33-7.75Q377.33-3.88 380.12-3.74ZM413.44-11.49L413.44-11.49L413.44-11.49Q415.14-10.34 415.14-7.79L415.14-7.79L415.14-7.79Q415.14-5.24 413.85-3.60L413.85-3.60L413.85-3.60Q412.56-1.97 410.45-0.88L410.45-0.88L410.45-0.88Q406.10 1.36 401.40 1.36L401.40 1.36L401.40 1.36Q396.71 1.36 393.96 0.34L393.96 0.34L393.96 0.34Q391.20-0.68 389.37-2.58L389.37-2.58L389.37-2.58Q385.76-6.19 385.76-12.78L385.76-12.78L385.76-12.78Q385.76-23.05 391.34-29.31L391.34-29.31L391.34-29.31Q397.32-36.04 407.73-36.04L407.73-36.04L407.73-36.04Q414.19-36.04 417.38-33.32L417.38-33.32L417.38-33.32Q419.76-31.28 419.76-27.95L419.76-27.95L419.76-27.95Q419.76-15.98 399.09-15.98L399.09-15.98L399.09-15.98Q398.82-14.21 398.82-12.72L398.82-12.72L398.82-12.72Q398.82-9.59 400.21-8.40L400.21-8.40L400.21-8.40Q401.61-7.21 404.19-7.21L404.19-7.21L404.19-7.21Q406.78-7.21 409.53-8.40L409.53-8.40L409.53-8.40Q412.28-9.59 413.44-11.49ZM399.57-18.90L399.57-18.90L399.57-18.90Q404.40-18.90 407.18-21.90L407.18-21.90L407.18-21.90Q409.97-24.75 409.97-29.31L409.97-29.31L409.97-29.31Q409.97-30.87 409.39-31.72L409.39-31.72L409.39-31.72Q408.82-32.57 407.66-32.57L407.66-32.57L407.66-32.57Q406.50-32.57 405.52-32.13L405.52-32.13L405.52-32.13Q404.53-31.69 403.51-30.19L403.51-30.19L403.51-30.19Q401.00-26.79 399.57-18.90ZM443.36-19.11L443.36-19.11L443.36-19.11Q445.81-23.46 445.81-27.88L445.81-27.88L445.81-27.88Q445.81-30.80 443.70-30.80L443.70-30.80L443.70-30.80Q442.07-30.80 440.37-28.02L440.37-28.02L440.37-28.02Q438.60-25.23 438.06-21.62L438.06-21.62L434.52 0L420.44 1.36L427.38-34.68L438.60-36.04L437.38-29.17L437.38-29.17Q440.71-36.04 448.19-36.04L448.19-36.04L448.19-36.04Q452.13-36.04 454.27-34L454.27-34L454.27-34Q456.42-31.96 456.42-27.78L456.42-27.78L456.42-27.78Q456.42-23.60 453.66-20.94L453.66-20.94L453.66-20.94Q450.91-18.29 446.22-18.29L446.22-18.29L446.22-18.29Q444.18-18.29 443.36-19.11ZM479.13-7.68L479.13-7.68L479.13-7.68Q475.59-4.01 469.13-4.01L469.13-4.01L469.13-4.01Q461.04-4.01 459.34-9.93L459.34-9.93L459.34-9.93Q458.80-11.70 458.80-13.67L458.80-13.67L458.80-13.67Q458.80-15.64 459.20-17.68L459.20-17.68L462.40-34.68L476.20-36.04L472.46-16.25L472.46-16.25Q472.33-15.37 472.12-14.42L472.12-14.42L472.12-14.42Q471.92-13.46 471.92-12.48L471.92-12.48L471.92-12.48Q471.92-11.49 472.26-10.85L472.26-10.85L472.26-10.85Q472.60-10.20 473.08-9.79L473.08-9.79L473.08-9.79Q473.89-9.25 475.35-9.25L475.35-9.25L475.35-9.25Q476.82-9.25 478.07-11.02L478.07-11.02L478.07-11.02Q479.33-12.78 479.94-15.84L479.94-15.84L483.68-34.68L497.08-36.04L491.98-9.32L491.98-9.32Q489.46 3.74 484.30 8.91L484.30 8.91L484.30 8.91Q481.64 11.56 478.21 12.61L478.21 12.61L478.21 12.61Q474.78 13.67 470.36 13.67L470.36 13.67L470.36 13.67Q463.22 13.67 459.14 11.42L459.14 11.42L459.14 11.42Q455.06 9.18 455.06 5.44L455.06 5.44L455.06 5.44Q455.06 2.65 457.16 1.05L457.16 1.05L457.16 1.05Q459.27-0.54 462.54-0.54L462.54-0.54L462.54-0.54Q465.39-0.54 467.57 0.68L467.57 0.68L467.57 0.68Q468.86 1.43 469.47 2.38L469.47 2.38L469.47 2.38Q467.91 3.74 467.91 5.98L467.91 5.98L467.91 5.98Q467.91 8.98 470.63 8.98L470.63 8.98L470.63 8.98Q475.12 8.98 477.70-1.36L477.70-1.36L477.70-1.36Q478.45-4.42 479.13-7.68Z" fill="#4962e4"></path></g></g><style>text {
  font-size: 64px;
  font-family: Arial Black;
  dominant-baseline: central;
  text-anchor: middle;
}</style></svg>